# xmcd
#
# Track frame offsets:
#	183
#	12533
#	20553
#	32430
#	46243
#	57655
#	75495
#	88688
#	99588
#	110905
#	123188
#	134763
#
# Disc length: 2011 seconds
#
# Revision: 0
# Processed by: cddbd v1.4PL0 Copyright (c) Steve Scherf et al.
# Submitted via: audiograbber 1.80.04
#
DISCID=a007d90c
DTITLE=IVA ZANICCHI - I GRANDI SUCCESSI ORIGINALI VOL 1
DYEAR=1900
DGENRE=POP
TTITLE0=COME TI VORREI
TTITLE1=CALDA ESTATE 
TTITLE2=CREDI
TTITLE3=DIO COME TI AMO
TTITLE4=ACCAREZZAMI AMORE
TTITLE5=LA NOTTE DELL'ADDIO
TTITLE6=NON PENSARE A ME
TTITLE7=CARO MIO
TTITLE8=DOV'E' LUI
TTITLE9=FRA NOI (E' FINITA COSI')
TTITLE10=ZINGARA
TTITLE11=L'ARCA DI NOE'
EXTD=
EXTT0=\n
EXTT1=
EXTT2=
EXTT3=
EXTT4=
EXTT5=
EXTT6=
EXTT7=
EXTT8=
EXTT9=
EXTT10=
EXTT11=
PLAYORDER=
